<?xml version="1.0" encoding="UTF-8"?>
<svg width="338px" height="135px" viewBox="0 0 338 135" version="1.1" xmlns="http://www.w3.org/2000/svg" xmlns:xlink="http://www.w3.org/1999/xlink">
    <!-- Generator: Sketch 50.2 (55047) - http://www.bohemiancoding.com/sketch -->
    <title>ibm_logo</title>
    <desc>Created with Sketch.</desc>
    <defs></defs>
    <g id="Page-1" stroke="none" stroke-width="1" fill="none" fill-rule="evenodd">
        <g id="ibm_logo" transform="translate(-18.000000, -18.000000)" fill="#4A4A4A" fill-rule="nonzero">
            <path d="M18,18 L18,27.2363625 L83.6938485,27.2363625 L83.6938485,18 L18,18 Z M93.0014674,18 L93.0014674,27.2363625 L186.618162,27.2363625 C186.618162,27.2363625 177.055734,18 164.390625,18 L93.0014674,18 Z M204.982911,18 L204.982911,27.2363625 L261.61963,27.2363625 L258.257812,18 L204.982911,18 Z M302.225099,18 L298.863281,27.2363625 L354.985839,27.2363625 L354.985839,18 L302.225099,18 Z M18,35.9624959 L18,45.1988557 L83.6938485,45.1988557 L83.6938485,35.9624959 L18,35.9624959 Z M93.0014674,35.9755791 L93.0014674,45.1988557 L197.481447,45.1988557 C197.481447,45.1988557 196.261172,38.0901553 194.132812,35.9755791 L93.0014674,35.9755791 Z M204.982911,35.9755791 L204.982911,45.1988557 L267.829103,45.1988557 L264.717772,35.9755791 L204.982911,35.9755791 Z M295.501464,35.9755791 L292.390136,45.1988557 L354.985839,45.1988557 L354.985839,35.9755791 L295.501464,35.9755791 Z M36.8789049,53.9249918 L36.8789049,63.1744324 L65.3290999,63.1744324 L65.3290999,53.9249918 L36.8789049,53.9249918 Z M111.880374,53.9249918 L111.880374,63.1744324 L140.330564,63.1744324 L140.330564,53.9249918 L111.880374,53.9249918 Z M168.002931,53.9249918 L168.002931,63.1744324 L196.453125,63.1744324 C196.453128,63.1744324 198.259276,58.2897881 198.259276,53.9249918 L168.002931,53.9249918 Z M223.861817,53.9249918 L223.861817,63.1744324 L274.302249,63.1744324 L270.940431,53.9249918 L223.861817,53.9249918 Z M289.305177,53.9249918 L285.930177,63.1744324 L336.621094,63.1744324 L336.621094,53.9249918 L289.305177,53.9249918 Z M36.8789049,71.9005725 L36.8789049,81.1369283 L65.3290999,81.1369283 L65.3290999,71.9005725 L36.8789049,71.9005725 Z M111.880374,71.9005725 L111.880374,81.1369283 L184.548342,81.1369283 C184.548346,81.1369249 190.627136,76.3976588 192.563964,71.9005725 L111.880374,71.9005725 Z M223.861817,71.9005725 L223.861817,81.1369283 L252.312011,81.1369283 L252.312011,75.9954431 L254.118162,81.1369283 L306.232911,81.1369283 L308.1709,75.9954431 L308.1709,81.1369283 L336.621094,81.1369283 L336.621094,71.9005725 L283.214355,71.9005725 L280.379881,79.7240014 L277.532228,71.9005725 L223.861817,71.9005725 Z M36.8789049,89.8630684 L36.8789049,99.0994241 L65.3290999,99.0994241 L65.3290999,89.8630684 L36.8789049,89.8630684 Z M111.880374,89.8630684 L111.880374,99.0994241 L192.563964,99.0994241 C190.626717,94.6169921 184.548342,89.8630684 184.548342,89.8630684 L111.880374,89.8630684 Z M223.861817,89.8630684 L223.861817,99.0994241 L252.312011,99.0994241 L252.312011,89.8630684 L223.861817,89.8630684 Z M257.47998,89.8630684 L260.9209,99.0994241 L299.997072,99.0994241 L303.266603,89.8630684 L257.47998,89.8630684 Z M308.1709,89.8630684 L308.1709,99.0994241 L336.621094,99.0994241 L336.621094,89.8630684 L308.1709,89.8630684 Z M36.8789049,107.825564 L36.8789049,117.06192 L65.3290999,117.06192 L65.3290999,107.825564 L36.8789049,107.825564 Z M111.880374,107.825564 L111.880374,117.06192 L140.330564,117.06192 L140.330564,107.825564 L111.880374,107.825564 Z M168.002931,107.825564 L168.002931,117.06192 L198.259276,117.06192 C198.259283,112.702996 196.453125,107.825564 196.453125,107.825564 L168.002931,107.825564 Z M223.861817,107.825564 L223.861817,117.06192 L252.312011,117.06192 L252.312011,107.825564 L223.861817,107.825564 Z M263.939939,107.825564 L267.275391,117.06192 L293.471189,117.06192 L296.833006,107.825564 L263.939939,107.825564 Z M308.1709,107.825564 L308.1709,117.06192 L336.621094,117.06192 L336.621094,107.825564 L308.1709,107.825564 Z M18.5141576,125.78806 L18.5141576,135.037501 L84.2080061,135.037501 L84.2080061,125.78806 L18.5141576,125.78806 Z M93.0014674,125.78806 L93.0014674,135.037501 L194.132812,135.037501 C196.261172,132.919577 197.481447,125.78806 197.481447,125.78806 L93.0014674,125.78806 Z M205.497069,125.78806 L205.497069,135.037501 L252.312011,135.037501 L252.312011,125.78806 L205.497069,125.78806 Z M270.413084,125.78806 L273.840819,135.037501 L287.169433,135.037501 L290.38623,125.78806 L270.413084,125.78806 Z M308.1709,125.78806 L308.1709,135.037501 L355.5,135.037501 L355.5,125.78806 L308.1709,125.78806 Z M18.5141576,143.763638 L18.5141576,153 L84.2080061,153 L84.2080061,143.763638 L18.5141576,143.763638 Z M93.0014674,143.763638 L93.0014674,152.986919 L164.390625,152.986919 C177.055731,152.986912 186.618162,143.763638 186.618162,143.763638 L93.0014674,143.763638 Z M205.497069,143.763638 L205.497069,153 L252.312011,153 L252.312011,143.763638 L205.497069,143.763638 Z M276.912599,143.763638 L280.208499,152.97383 L280.775391,152.986919 L284.124025,143.763638 L276.912599,143.763638 Z M308.1709,143.763638 L308.1709,153 L355.5,153 L355.5,143.763638 L308.1709,143.763638 Z" id="Shape"></path>
        </g>
    </g>
</svg>